<mxfile host="app.diagrams.net" agent="Mozilla/5.0 (Windows NT 10.0; Win64; x64) AppleWebKit/537.36 (KHTML, like Gecko) Chrome/130.0.0.0 Safari/537.36 Edg/130.0.0.0" version="24.8.4">
  <diagram name="Страница — 1" id="wMV_Qnkp44GckSceB2j4">
    <mxGraphModel dx="1115" dy="742" grid="1" gridSize="10" guides="1" tooltips="1" connect="1" arrows="1" fold="1" page="1" pageScale="1" pageWidth="827" pageHeight="1169" math="0" shadow="0">
      <root>
        <mxCell id="0" />
        <mxCell id="1" parent="0" />
        <mxCell id="NGsIiaSq1cdiMAnRfdac-2" value="&lt;div&gt;Web-console&amp;nbsp;&lt;span style=&quot;white-space-collapse: preserve; background-color: initial;&quot;&gt;containerized&lt;/span&gt;&lt;/div&gt;" style="whiteSpace=wrap;html=1;aspect=fixed;horizontal=1;labelPosition=center;verticalLabelPosition=top;align=center;verticalAlign=bottom;" vertex="1" parent="1">
          <mxGeometry x="290" y="70" width="270" height="270" as="geometry" />
        </mxCell>
        <mxCell id="NGsIiaSq1cdiMAnRfdac-4" value="Applications data storage" style="whiteSpace=wrap;html=1;aspect=fixed;labelPosition=center;verticalLabelPosition=top;align=center;verticalAlign=bottom;" vertex="1" parent="1">
          <mxGeometry x="950" y="70" width="270" height="270" as="geometry" />
        </mxCell>
        <mxCell id="NGsIiaSq1cdiMAnRfdac-10" value="" style="group" vertex="1" connectable="0" parent="1">
          <mxGeometry x="1030" y="80" width="80" height="80" as="geometry" />
        </mxCell>
        <mxCell id="NGsIiaSq1cdiMAnRfdac-9" value="" style="whiteSpace=wrap;html=1;aspect=fixed;" vertex="1" parent="NGsIiaSq1cdiMAnRfdac-10">
          <mxGeometry width="80" height="80" as="geometry" />
        </mxCell>
        <mxCell id="NGsIiaSq1cdiMAnRfdac-8" value="" style="shape=image;verticalLabelPosition=bottom;labelBackgroundColor=default;verticalAlign=top;aspect=fixed;imageAspect=0;image=https://miro.medium.com/v2/resize:fit:538/1*AbuS5UNh29b7qbh5diEqgA.png;" vertex="1" parent="NGsIiaSq1cdiMAnRfdac-10">
          <mxGeometry x="15.469999999999999" y="10" width="49.06" height="29" as="geometry" />
        </mxCell>
        <mxCell id="NGsIiaSq1cdiMAnRfdac-89" value="&lt;b&gt;LOKI ENDPOINT&lt;/b&gt;:&lt;br style=&quot;font-size: 3px;&quot;&gt;&lt;div style=&quot;font-size: 3px;&quot;&gt;&lt;span style=&quot;white-space: pre; font-size: 3px;&quot;&gt;&#x9;&lt;/span&gt;http:localhost:3100&lt;/div&gt;" style="text;html=1;align=left;verticalAlign=middle;whiteSpace=wrap;rounded=0;fontSize=3;" vertex="1" parent="NGsIiaSq1cdiMAnRfdac-10">
          <mxGeometry y="69" width="39" height="11" as="geometry" />
        </mxCell>
        <mxCell id="NGsIiaSq1cdiMAnRfdac-13" value="" style="group" vertex="1" connectable="0" parent="1">
          <mxGeometry x="520" y="100" width="80" height="80" as="geometry" />
        </mxCell>
        <mxCell id="NGsIiaSq1cdiMAnRfdac-12" value="&lt;font color=&quot;#43439d&quot;&gt;&lt;b&gt;Collector&lt;/b&gt;&lt;/font&gt;" style="whiteSpace=wrap;html=1;aspect=fixed;fontSize=8;labelPosition=center;verticalLabelPosition=middle;align=center;verticalAlign=middle;" vertex="1" parent="NGsIiaSq1cdiMAnRfdac-13">
          <mxGeometry width="80" height="80" as="geometry" />
        </mxCell>
        <mxCell id="NGsIiaSq1cdiMAnRfdac-11" value="" style="shape=image;verticalLabelPosition=bottom;labelBackgroundColor=default;verticalAlign=top;aspect=fixed;imageAspect=0;image=data:image/png,iVBORw0KGgoAAAANSUhEUgAAATYAAACiCAMAAAD84hF6AAAAulBMVEX///9LX6v2qBz1oQD1pABCWKg5UaU/VqhJXapEWan29/vy8/m7wdyRm8hGW6n2phD2rS+jq9A1TqT4vWSXoMvU1+n3s0DLz+P8/P7737z86Mtnd7b++e784r9YarDj5fD969PHzOJfcLN0grv62Kf5yIOLlsW+w92rs9T4vWb60Zn+9OaCjsHf4u/2sDz73bT5zI73tUz4xHkrR6L62av3uFN7iL761p9wf7pjdLT4wHEkQqD+9en6z5NK8KNIAAAMdElEQVR4nO2dCVfiPBfHW5puLC3UMqKALIKgguDuzKvf/2u9yb1Jmy5A4XFOccj/nJkDbVLTHzd7cqNpSkpKSkpKP1MvT3e9stPw49SrEEKMftnJ+GHqVfwKleK2lzg1xW0vRdQUtz0kUVPcCutTpqa4FVTPT1BT3ArpM01NcSuiZoaa4rZbl0aWmuK2Uy8kD5vitkPDXGuj3C7KTtlx6zGnbFP2tlsPm7gpe9uqjdyUvW3VRm6rslN23FL59DApbodJcTtMqnwrruV8vhSfFbeiaj2bZtAQ3xS3YmpZOpV1I77/UtwKCKnpuq247aGQU1Pc9lEropbglj+MpLhxhRI1ZW9FlaQmc1P16WalqSl7K6IstULcLstMc/nKo1aAm98sM9GlK59aAW7GKS9/20RtdzuElJnskrWZ2i5u5KnMdJerbdS2c/N/lZnucrWd2jZuiloxbo9EUUPtpka5LURouT49ZWrzYDc1mVtsb+SEqWleEWoJeyOKmlYtkEVz7e2Uc6hW2NqS3Hz/pG2Nql7U3HRrLuJMXl/fy0zzMahRlJtzVXZSj0rFuZWd0uNSQW7eR9kJPTIV4/bcLjudx6YiPYVgVHYqj08Je3Mcz3EcRa2AIntzbUu/6v6+ci3bU9Ry1Zm1zsVnsDfP0sN2De8NZm+B6ShqGQ1c27TGHf6N2pvVTZb61blnKmopDcCWvCvBrWGfZ8J0wkBRS2hgYw6MuXXygi09T1GLNYjKrZhbrmqOohZJ2FoBbkqRZGopbpdPTWKQyuvklOeN85Wkputm1N28bBq4cdknxrTMJB6h0tT0QCwN/yPviCT+sMxUHpsy1FwxofeYmgc99fVEsjLUdAs7BtpZZtbduC83rcejLDXvGu+88BxKawSD4Hzoia/DipWlptu8YYa25ldWtA4d8lKOvJSb3CNRDjU9qMIt9CtAznjIPre98tJ6PMqjJqZWYH+8/xCFRYzGsJyUHpPyqOkenwAF6yJS3Qnrw8nJT+3lU9PNFty8R2xS8Hdmbv4Jr/tD5VPTTZw2vgRIj1L4Plw5y3/YyWhg5VLbhe22nNQeiwZ2LrQtmfRLZVJqaxuopaoEaRs8Ntwm5aT3OLShXGMSDZBXP9lO+yIn373abGt61Ny9wHVrD3yc7c6oJNtxJ6irbcvYROeKr8gl6+Hn/Yovmjxp3xWDrQt0vTcMJZzdEWJEXfnXchNerrbmUZpLBxhsmh448slpj4zrGysEnQ2Ji6mEJyNF7ZTrA6plsJmbKa1buzOkfQfk4bRtjaq9oYuQpEYbvWdYrPnEqKihNsptg72Z6TWS95Pbpl95nKppBFC+vZnXZafr2JVnbxlbU8qonWmGKFsrorS9KWpb9Sk+JO1NUdumqWH4wuur3H5T1Lbplsg98rg+VdS26ZaPZAivOkvOTVHbplvRO4/sbQnlm62obdFtPKYh2ZttBm+lJus41bvgpnUrjwRFbnWq9ZbaPpXV0CCEDLX0wity8k7DtgsXIQzTy9UUtu3iC67Si/yMstN15OLHBqUPqlIjQduVe26QorZTOdwUtQLKcFPUCinFTVErqAQ3Ra2wJG6K2h6KuKktQHtJcFPY9lO0FGZYdkp+lgS3k17ad4A4N6J2hu4n5Hbqq733F3AzTnrZ8kG6JIahjO0ADVWFoKSkpKSkpKSkpKR0ihr2L/rDb3xePUd54Tob7xy/Ls8IWy9kkLNvmzcJ7IyCvHDV5013DlaLKhx86yPzdP8YbRXzjcdv6oKbmV0cjpkXjh3U4djf8ze5PNM0g7++lq4v76+j4Pq7oxRQidhguevfxtbPLEH4lh3XFmZM2Pbt4WcrL9wPxXYfTWz6wui+Ze4EK4HZtcc8tc02Vwk/FBs/qZeQs6czwpf2oV+El8lk8t7TtMnt4+t6mIy1enp9/DOJ8K5oUPZt9ScdtOHqutuQrwzmi+5HYya2LqewjcLr7mIunFZq7Xm9PqcEzhvdjxBJ1G9o9IRT3vPwo/smFgZXzStWPMC/Ftyk9QP9wc7f9LmmvXWpxKk8nTH9Mp7txwt1wTcQoAerCX5DbyYVVrf2+oRQOyTG42cc6Z3wi2Lc+4zWw0b/s4lXZY8xaWzVt8D0PM+17XkOtpFnufSuaX1wB4wtWiEHLe2DXXYD+r4j02bRrXE1gqZbJsQZD/B5WKg63LFNyzJNa6E1Ao/9xbpFgwb84SP5y34C92mxu7QheuUAn0NNBvA9ysPxdPFrfMRZBdeBn/ksqMjl8kxfCtsg8uvvWIsMtjBy5eBZaHAtk34Of7t41Q7rYhuSJ07WaUUbk7zgXEscoYXY2BMa7KQj5lUJ7tq8tFh4sX+I/dRDXznxRmvuda7HsbE1pYS7mRD+EmB1LrU38EXUjLBJy0+lwjGJrQb1q42HIlitFDY4X96jdxlVuyqw6Z6j8/MnmGt7TsnCd68HPI7DfokaawdiHU5bIVbIn+AsWHxwRnXDUHUhaocFtLKO4AvoEg1HuoKE+gIbNaj15AnA8bNUL2Aybzoc3gG+SYSNonzA0pHcbcAGFYReX7YXjBDkjxgbuA2xFu1lnb0kupcFbNT2xp4tjPRKh2yIHkFrYD1v7eWMuWphx+10WnNG1mvM5/NzCTw1RoYNdhuiD9Zze1OjaKcmGfdVT76AAdjIH3axBxUH7sxgl7FtNzQEcsAGeXOS8r6WwLYMmLF0BA83TGB7oy9uowU64t3gpV2WnfFAMWdMr7aZmWAc9niTPUbrsJrAguItUZMieGqQvNJgwTCXMsPDuHsLXPORL+kK2tAd5yPOzOvB1RVnJebbmeMTKBYZNu6E7dZPnLSXwBbSVxDHI8DLyNiqQewvqm7zd8OXhmsLyNjApc6uQoeMGR4/CIsZD3o3y8HmijpGm9viECiWr4PD+mBoHPJiDfABA64hmyK3isuROYmrLItDUKgScBKeVc2bsI1Z5uuAtNBDCBE2eO25BndZ3vNu+Evz6DM7wgrubFjjmW2AozaLj7RFzs1i88ZRgmqieGDZ1ft9EDV0zVeRvQM3oxZIsyLtmGIBwcie0F8HSuRwwHYRodyEjRUxuoldBsiHbQkbmBDvT8DHLn9p7iCPYeWFeTXg2EZYe0RxEGsWmyU1fqEsqGPK7AOHXrCPIK0XxVUvUBUCtug64UXWn9R+DWBZDBtUXbRSBMG7nUvY5pCb4puAoAg2+YlOPjZdeuVzC5/DwgdV7TDh3hVfGFUPWYD5ATbRyL2IrA0ysRGrODYNXs2K9SxjY+UZrTMjBUWxOdIT7VxsXmIbK9Y3LH97C+1AYb/Ar6C9DbHxhcVUU27RsbxJ1jwCmfQkFcf2m+WPQS1WR8IGZU1YjW9Wd2MbwLt3pCfmY4sOvxZX7Dr7/7BGG4jnOePX1+rrl1h3qwlsokkHmRnAQE2aPl21IDaAIM4b5Z3SCFuHffC05N0d2FhtyBvGcZxd2GoBq0vHuv5fDqOMligT0RvgrTLeS/jFrGmILV+4zJpwvPt03+QNtILYavC6+BOPnrE4jtttN26UnarXV9XopbdhAyi/gVdn4dVibIzUoJ2LjTe6owcfpq/MeNtai7FRnK9TdH1I8DpwJs271eSW+ASoFsWm3UC1dj2fzceWk+5c1VgjzNNbs3qDdtf1WhFsVVYje25Yrzdc1zOxI9tlTGjf/3mej23EexwHNtryuQlqvCkSDcRFhxissR+LxolHtxTFpl250F20oZ3/v3YCmzYLeAPFZS35bhFs6NLGcTGOic26kNfJ5gZsfORZaswdpD6Jt86SqIGbGgERgx3ALZ56wH5ZYWydbuQRxMXcKo+AzIJ4fAS9R+3ERtsTfHiEXsHcGvnE3IgNuR7aaIv1XjGg+WpU4k44b+4O8VZiEG34yoM/8AbfGfvCsbFbsf/XG8t1LTnVdd2yTde0g0WNI3BdU8xc1d4CuGnp/JVaLDpiG9GANrbqq8+u6z7zONUby4I4TnS49Yj/iRE8wfPsFDbkah3aaJN0v/qafq2G8iXRS7i8m65XKceHnzT4+iUaH3qfTqdPGHn4RD+vo4D1Rhg2kj/rst4K5yOR5ioNEMbmWBvNwzAe3R2x6DiUu2QBkWD1hn6MUVTPaZy6PApenbXC1ghsr/5xff2RLvs/vP/SaNuuROfq3xH7EcYHj7Tt1r+JbfDsdWk9rTv67rAH6d/EtvAcGFGwDpp6KSCYgvncHe5HqSZq2b/m5/FrvV5P/zVrW14FNqu6lXfMPbWsy1W1kpKSkpJSAf0fZb7qGViFghIAAAAASUVORK5CYII=;" vertex="1" parent="NGsIiaSq1cdiMAnRfdac-13">
          <mxGeometry x="11.300000000000068" y="6" width="57.4" height="30" as="geometry" />
        </mxCell>
        <mxCell id="NGsIiaSq1cdiMAnRfdac-55" value="Collects, processes metrics, traces, logs and other data about application and sends them to Grafana Alloy on a remote rerver" style="text;html=1;align=left;verticalAlign=middle;whiteSpace=wrap;rounded=0;fontSize=3;" vertex="1" parent="NGsIiaSq1cdiMAnRfdac-13">
          <mxGeometry x="15.45" y="45" width="49.09" height="16.27" as="geometry" />
        </mxCell>
        <mxCell id="NGsIiaSq1cdiMAnRfdac-58" value="&lt;b style=&quot;font-size: 3px;&quot;&gt;OTLP HTTP ENDPOINT&lt;/b&gt;:&lt;br style=&quot;font-size: 3px;&quot;&gt;&lt;div style=&quot;text-align: left; font-size: 3px;&quot;&gt;&lt;span style=&quot;white-space: pre; font-size: 3px;&quot;&gt;&#x9;&lt;/span&gt;http:collector:4318&lt;/div&gt;" style="text;html=1;align=center;verticalAlign=middle;whiteSpace=wrap;rounded=0;fontSize=3;" vertex="1" parent="NGsIiaSq1cdiMAnRfdac-13">
          <mxGeometry y="69" width="39" height="11" as="geometry" />
        </mxCell>
        <mxCell id="NGsIiaSq1cdiMAnRfdac-23" value="" style="group" vertex="1" connectable="0" parent="1">
          <mxGeometry x="520" y="230" width="80" height="80" as="geometry" />
        </mxCell>
        <mxCell id="NGsIiaSq1cdiMAnRfdac-19" value="" style="whiteSpace=wrap;html=1;aspect=fixed;fontSize=8;" vertex="1" parent="NGsIiaSq1cdiMAnRfdac-23">
          <mxGeometry width="79.33333333333333" height="79.33333333333333" as="geometry" />
        </mxCell>
        <mxCell id="NGsIiaSq1cdiMAnRfdac-20" value="" style="shape=image;verticalLabelPosition=bottom;labelBackgroundColor=default;verticalAlign=top;aspect=fixed;imageAspect=0;image=data:image/png,iVBORw0KGgoAAAANSUhEUgAAASEAAACuCAMAAABOUkuQAAABlVBMVEUrMjv3wSL2viH3zSEnMDv40R8lLjv3zyAiLTv3wyEcKjwmMTsAHjopMjshMDsVJzwAJTv1piMbLzwNJDwAHTz81h/zaykAIjscLzzygSj2gyb8iSUZLDz0lCX2myUhLjv1oCP3rSL/wyIzODn/0B3+yR//3B76aSi/WC/ybigAKzzwdCj2cyfyeSf6fCb7jCT8mCTiiSY8OzgAGz79pSJIRDn1rSL+uCPZrifguiXBqCtOOzmBRjRCNzx7RzfrZSyfTzLTYCy1WDKWTzVePzplQTfiZS2uVDQZMTjJXy2NTTQ3NDumWDLmbiqDTDdUPDnTZyu8Yy+UVzRySjlgRTSuXzLheCzFaTCZVjR1SzSDVDW8ZS3WcyvqgymeXzK0ajFgSzSKXTHKdy6majS3by/YgCt2VjRwUjjZiijGgCjokCevdy2FXTRWSTq8fy2aazLalCmOazDooiUAEz3NkimwgCy+jC6gezHUnih2XjS1kC5ZUjaCbDTGmitsWzehgTF6ajSzmC6jii2AcjPQtShCRTiQgy+b+I3PAAALe0lEQVR4nO2b+1cSXxfGR0VBYIDhqiMDjGjEMDCECJjVt1LLa+YlLTOzq128pJXXxFv2d797nxlMtN63X75rejnnWStOrnG1js/67GfvDcbxHBMTExMTExMTExMTExMTExMTExMTExMTExMTExMTExMTExMTExMTExMl4h0uh9l3+Kvl8PbeuMks+r14PpFI3HKZfY2/Wco/weBtr9m3+Jul3AkmrjKHfiP87Xbv3WDwjmL2Tf5KORRlBCxq6QsGg4rD62UcXZCj/94/ibiDc00lgomR/tt3r3rZf5iokqMXnBlwcI6bajLY35dIBFmpVYv3JoLBYRfHDyaT6vAAglSZiniXi5UcSLkXDN4HJ5SxpDo6gkAZUxE/MjB8e9Dcy5kuvsXrVYaCwSFwyDukqkNKkABF5BqGITJMdyjxI8P379wcDQbvQfZ4R1V1zGMAxTlcXi+WXC/diwgfx1XjQTCZhP7leqCm1ApQjvEb9/t4cIj2RQRXjb5xNakCKo5+cOjmqJocQ6CuJhJ3PEl4SnlWw6oRvOsFhwAV3gEOTT2AL1w85yXzIzydoNwhfdWANo87q5JKZR6Pq6o6DvPjLaiwwbvB5EPKp6OWvkQwqTxUVURFeZhOT4R1oMgc2d8HCUW5Q65bMEg77qopRMU7kUnPe8ZU9bEX5kjIoBtTYBdHd7t39IIH/Y/VVAocapnMpNMeBCpM5sfkaA6SaYDuZsZjSj+YUlOZEdxdM+kMP5FJzSNQQ8nkkAIODdPtEKwcKqwa4Mw0ZE8Oz8lMKq3Pj8kxLLlHtDezWVWdVdLpzHALxytiWpwcyOhADeP8OJtKzdLu0KiaAlTSGURFmYGzAtQAmR8z6THamxmgklFm02lEJTwrivMI1CQAxWVwfgS7KH9DzTENRXXzUSY9g9mzIIozoRkDqFRKfTwODtG+u3LgwZO5TFrE3XVObBWV2UxmVjHmx0F8Snszg6LSUbFwlmmxta13IdNKgJpIp+dD+LTF7DuaK2U+nXk6COw8wd21Dc65TKs4yHMtj2F+DM2nxadhs+9orsiqEWptFRcAFeWZ2LYwDiCNWzjXEwDLNYHZbfYdzRWuGq2heVF8is3spdj2WgGQ5nB3JfOjKLZS7hCuGqLjuY5K+Hmb+Mb5TESgeG+rmJmbgvqL093MAJVWEVBpRVRaFjRNQ6Be4+46I4rP421i2zTdzQxWDSiqJcgeQCW6BA7xANJMmJSc+NIDJfciavYlzZVnpvUMFUdOe6YtTraJIpbcI1F8BiXX9pzyZqajIoraJKCiAEMvpuAl58D5UWzz4FPaHXpOUNE0REV5o2mvR8ChpSgsJABW7ytNe0Z5M2uZa0NUNO0lyR5NeumUACRoZjw8eDIHdlG+u0YRlRygcs0DDr3SpGtOBAmBArAWpsEhWEhoFqCiaU+WwYgwz0XnslK2AhQpOS88mKO73euorGhSdgV21xVwqBtBQqBea9obpyRpryiPagMVSXsbhd0VHHo7J2lZwCYM86MEJSe9ptwhHZUPUhZR8cC5hiABUDA/Strga0l64zH7juYq/IKgIkmr2Mze4YkgRTlLL5yLL7KSRLlDiEqWR1RwkP6Yld5B9mTXwhwfhvPFEthE+e5qyYFD0wYq4bVsJAJAZd9jyV2TpFc5BInuzYxXAJVlA5XoUiSSjQNQ7xCo95L0HoF6YTP7kubqDBVYNSy5SCSC2RMh86Mkfej6EIl8pL2ZEVQiOioKOATZE4nA7hpFp0LvI5H3brPvaK7Cr7KAyjUdFQ8iEwebAKjoIjjV/SoS+UB7M1vGojJQCa/C6UeQoJlx4NDbZfiC8t8ZtixCOnd/1FEJf4zEPnR9MoACc9ZW8pH8Cu27KziEqOQBFdtyLJb3vI/FECjPu0hkNZyP5XfobvfnUOFhdwVDutfyMQLUaiT2risWi61R3swIKl5wBndXC57L8BLlYX7Mx2Jdn2KxVcqbmX019hMVz0Ysv4Yg4e76VojlHfD0E+XNLLwWiSAqeUTF/UUQVj3gzI6Ns3SDU4trQkyg3KHoWzCCXxUAFaisr4Lw6TOAtIW7K5iz/lYQhDjdzewcKiR7BKHrkyBsYjOD82sOHFqiu5nxWFTrS3khD7urrSwIMo8gefSS+9IFDq3T3sw+CfmPuTxBxZKTBXlxXRYwe+zg1MbnDUH+ajf7jubKvQmoOA1UPODQ+hK85KCZfYMz9EUWvlDe7sMfdVQERMWHyMTBmTLurnB2b8nyRsjsO5or2zIUVWhTlhEVN55dsiyv4+4K5843uSBTnkMVVARExY7IfN6QSfaECrK8tScXitTvrjoqsgym2OAsegygfNsFeVMpFoo7lL8RGxIAlRUoJvK5KyADQBUKISy5QmH7c6Egb9HezLZledNTLMiACh/Fcwe4wd11q1gofN4uFjdpb2ZfMXsMVEKFQnFrpUiyJ4pO8ZvF4rbvf/8rFpvd7avRvAqvy4hKobAZxuwBZDzFYvEb7q7g0N46fPFf230TeBMK5cpbu6UajXTbGSq4anyF83OhWASgeB+Ys77TXizEf/lWNcHGGd37drBfqm9HHdZmpFehYscTs2cfm1lpe3eH63ZfRIhHbJy+3M7W7rZuTT1R+0GNRjpBpQwvuGrA2R7fLJZ28Yf1+dw2/nzl6NhYfmJTf17tuzUa6aGNYvFrvL1YLNs4R257dyvH+0KXacC06b6IzU/V1dfVlf4g0v8f5d6H7OkqbuyXm4ASn9telTqIDaJhP/kVNmiNoWb44zTpR/iXZVvf3SpH3SH3pXfKeAMbDCX37iVv6s+cMf7SWatvR9rd9vPm8CRtoMz4aKVJ+XhY2dqrnDkzpq5ZV2dnZ0e5NptZtWwhD2JTwr4UqkRwt4WzlduNtKn7hTedzaX9g8NuS+1+gk2wCVlwOjKw2fdhuzccgkHHEu+86IzuTU9p96Qcd0J+2Wq0xkBuSJuD3VI9rhplo5hKzkr21NWRQcfZrBdXNTan7hr3hsi9j9DUGai0G1EDDNkPOnVk9PnxMjZhm8XC85XSAhBrtMoqbUpHpa6uHmnpxOw5bNdrCgcd334lbS5j04SDpD9X/lGjQVRpU+2IirOkt6lO8rlrp0ENlFzTXjnu9/ns0aZzLpD88tv3To6v9zR0dAROa7PcbDvtpIMbqDSTrOk8wN21A7A5OjgkS3tTNTY2wMYJ2ByVejqIGhoaOmp2d620KSfJHsJNxxEAZdvTm1TT+e+uxka3xlDHcW1uZryvGdOmrhlnYtthB8HmNIrFdL6iOAtJm1PA5nvzBWt0WRuv1+hm5izpadOJm1ncmG2q0gaLx3IJG2vD2WltsIIae2p0M/NdJ9h0e8jyUdWO7CRtDk/AIl/PRWwMh6zEHGsjqkYd4lxO5yVs7Bg+cQObZj8MBUcXyspa5Q0oELhSq7trlZp0bH5AyfF8QMemERLY/qPDoMZqrZBjrVgD5lxp7Ll+lKtlh7BJAUVNZSNtsC/5DVxw0LGVA9W+/PTG+v3ox2Guy+9z1+bECLLr2BxFEZWAlXCDfcn5XcclcGjnLLkAVNSZPcSbQM/145M9O06SOC3VrD+cHbCxAjaBPUTFiBvsS76jDgJN4BgWEv95bBoQmzhiA7uZ2ff/9+Xs0V3pILtrwBhu/DpQSE2AANUDzhjYuP0UrPTn5Dsi4dvQSLJHzxoryZ7DgI4NAuU+PvpRzvn9UFFN9HijC1Ah3DTqqDSSBh5AoE6v6E0Kq4xzU4VNlQAVYyb24/wY0GcbdMUO2MT9Tl+Nflb4x7KcBowOhZPhMXCD2OAOwtGLTbX8OjaBKzDxNZURG2xSZt/qb5KzR0+bkziH7xgybC7JdliOd+FOz6z5nWwMGyYmJiYmJiYmJiYmJiYmJiYmJiYmJiYmJiYmJiYmJiYmJiYmJiYmJqY/0H8AyZRZDrqbo4IAAAAASUVORK5CYII=;" vertex="1" parent="NGsIiaSq1cdiMAnRfdac-23">
          <mxGeometry x="21.96731875719218" width="35.937999999999995" height="21.636363636363633" as="geometry" />
        </mxCell>
        <mxCell id="NGsIiaSq1cdiMAnRfdac-21" value="Collecting docker logs setting them unique labels and sends them to remote loki instance" style="text;html=1;align=left;verticalAlign=middle;whiteSpace=wrap;rounded=0;fontSize=3;" vertex="1" parent="NGsIiaSq1cdiMAnRfdac-23">
          <mxGeometry x="16.791714614499426" y="32.728181818181824" width="49.71231300345225" height="24.545454545454543" as="geometry" />
        </mxCell>
        <mxCell id="NGsIiaSq1cdiMAnRfdac-65" value="&lt;b&gt;Promtail&lt;/b&gt;" style="text;html=1;align=center;verticalAlign=middle;whiteSpace=wrap;rounded=0;fontSize=6;" vertex="1" parent="NGsIiaSq1cdiMAnRfdac-23">
          <mxGeometry x="24.475949367088567" y="27.99999999999999" width="31.392405063291143" height="10" as="geometry" />
        </mxCell>
        <mxCell id="NGsIiaSq1cdiMAnRfdac-41" value="" style="group" vertex="1" connectable="0" parent="1">
          <mxGeometry x="330" y="80" width="80" height="80" as="geometry" />
        </mxCell>
        <mxCell id="NGsIiaSq1cdiMAnRfdac-33" value="" style="whiteSpace=wrap;html=1;aspect=fixed;strokeColor=#6cb33d;" vertex="1" parent="NGsIiaSq1cdiMAnRfdac-41">
          <mxGeometry width="80" height="80" as="geometry" />
        </mxCell>
        <mxCell id="NGsIiaSq1cdiMAnRfdac-38" value="Spring Boot Actuator" style="shape=image;verticalLabelPosition=bottom;labelBackgroundColor=default;verticalAlign=top;aspect=fixed;imageAspect=0;image=data:image/png,iVBORw0KGgoAAAANSUhEUgAAAOEAAADhCAMAAAAJbSJIAAAAKlBMVEVtsz////9qsjpmrzJ/vFXO5cHq9OPC3rKPxG/3+/Skz4u32aJfrSfZ68/c9AzBAAAL2ElEQVR4nO2d57akKhCFHQxtfP/XverpoFQBewOGvqvr36w52nwSKlAUxb//uxRXN+Bw+RF+v/wIv19+hN8vP8Lvlx/h98uP8PvlR/j9koOwaepjpGkytC6ZsBnaqiqOkapqh2TINMJmMGNpjDmIsDCmHE0iZAphM1TlYXAfyrJKYkwgfJzB92R8XEDYVOM5fKuMVXQ3xhLWVXke3yymqs8lfBQnduBTIkdqHOHjzBH6kjEOMYqwvqAH54FaRA3UGMLmEsBlLsYsNzGEFwEWRVmdQ/g4dxXdIUZMRZ6wqa7qwlkixilP2F/XhfNU7I8nnC6bhX8yHU7YXgto2qMJ6/FSwFnvs0qRJOwu7sKlE7tDCR9XA86IpMbgCC/VFC9CUmNwhJdqipeUnMagCJs7AM6IVCcyhNcvM3/CLTYMYX012lsYjUEQ3qULyU4kCId7zMJFyuEIwu64wC8txuCdiBPeQlO8hNAYMOHVPoUtsI+BEnb9vQBNj45TlLDOAmhWyfMmVGOghDnGqDFVO0uVhdHALcf+LIemMMVjWobWsmWV/jZYY2CEOXyK8uMTdG2ODwb6GBhhBk2xt0NyrFtgVAoizKApjNl98RwWoME0BkSYoTn2rMkR78GiUghhhtbISZMjWgBFpQDCHCOqFAo6hxEI+RgAYY7ok1zas+x+IFGpMGGW6JPcUslDCGiMMGEWn+IgQsTHCBKS0SdjylKxyiDC5VntYS9isBNDhNwyY4q2H3rF8gQIZ6u1Hx5Dy02K8GITIqSiT2Vbr7839TZimHC2Wv+6Y+o55RTSGAFCpgtN2b+HzGQlawQJTfU2ULqeyfQIdmKAkPApzG7ptvo+RLgBXL4PM1JDPoafkIg+2UlLe9s6RGg1k9FQoaiUnxDXFMIM3lvrIcLRWhIbwr8KaAwvIe5TmMr+kPsZHCA0Io2EciG9PoaPEI8+la1USxSh9BIIRGn0ooRw9Ek1nihCZaARA9UblfIR4n6vZlgwhGqyE96L3qiU5/9QTaH72vvlMLjSaOMMz5/zaQw3Ibxi6y5MnaItnjLBadYeH8NNiGoKvXHW9wlrfLWJsM3o0RhOQlRTlGqwxLb2glabthr/Y2wqp8ZwEoIGqf7xxToYtrxLvRfhqeKMSrkI4eiTtlDXcd6TNp/h1cYZlXIQoj6FOv4f0ppFPGCjzugB7kSH2ncQgtEnM2rPKp8di2Joih/231xRKZ0Q1RSlMjQGzbsD4zSa/YWGUVxRKZ0Q1BRagx7qBEYjUaPSi7Da0jWGSgh+Ns2YcRw1gWNtylyETQ89KqURokNfmTa1wwrBo4nKdEJD0vpioxGiloT8Zs61nSCUAwMPFmkaQyFM0BROb4CICEtvGPcBtE5UCMH3GekzuZ9kYt7Kl0NtN02jSkI0+iQX0sn9JEOonG+CO1GJSklCOPok2uFZ86h9CznYYNtN6X9BiPoU0tT1fWhuZ2a0B1uHB/3EOmUTwtEnMeS9aovcexIuP+woylwpmxCOPolGeLUWSch9vh2hiErZhOiAF4PU3waSUNqY8DAVUSnr37BPLWxu/5PsDqnoxAnekLIf3RPi+wXG/sj+zmcJZQwdD55a/b8nhMeCUIaBmAC9yy1cdnybzzKXd4T4PoUYRYElmCYUtlsdu0m0IyS2Q61PHBrefKaCvVY3xH7bbhXcEuK5T2KtC+krntAeJcxu9G6IF3HvsHVFaALzhEIdEVkvO7NvQ0jkPtm+b/DjRBDaw4RJwNn+3IeQqSNgD6HgJInJGLKmOncm6fN5PoRM7lNpb2mHZnAEoR3OoNIXNoPsTUjlPtnb7kFTKIbQmglUfp35RFjehFTukx0IDj4cQ2h7iVx21nuhehFyY8C2boMPxxDaSw1H+E7QebWVOm4gDI6gIs1ByGW/vxfDJ2HH5cudQchPdquN3Y6Qy7EUi8AphGSi62uteRLidu368CmEtgtK5ty+Hn8Scsnq5/Sh/QzXC+/V9EnITcOT+jCN8LVYRBFG9GFErn5qH+4JubRcvg9lkDc8L+x5yJ6fGxMI+T6UmxxhOz9xLU0jpPWhPPcUbm6iPjQnE1rtBczoRJvG7kP2+J1FCCxUuwY3gHZKs0s/xnPUWsr7FsUuWR1yhOzFiT1gZq2l5NNRU8SM7dR0XdP0UMphkn+4yF7jk7OY9vGfj5VF26KVa211yBK+1raCaqL99PvX8ZR3/HxDUpxmHmfTjpD8QHSsjZekWNv2+Zd/yC3FIph5QGWXhHjpIu+dlde6zx0UpWPevKTEvNcmvqZxEfkCe98i+zBN2LdY5KNr3rqbG2dG7D1lHqYJe0+rfIbAxzqhyo+L/UNyMQ6K2D8kF4ry/eCHkPpI0lfIW40vYQ94lY3n9SHkllOxj8964IHXi2QMaoxsh9jGhqaqX5C5GKTIXAwunrvdBd56CcxqYWRST0ZCkRTFfb+dQbIlpOqVidhSTrumjM6JWmSfv7fz9JihIPPa8pWnlXErbo3YPb4j5LpB5CbmqBy0SEJuovL43ltnBoPMkaP2rzwvjs8v/ZP943tC6vg9kyPMSEKO8NouawRYERdmh0ZpSZaiM/F53n/Nsj68HVNi2igPfnYZCkrJoy/U8iC+u03IKB6lE/FTnw7Raukxnp38QCILmsmqUc7MpJYFSzkzs7ZJbAEJQmZI4Oee4DcqxwkoU0ueuJC5+ozihs+uoe9TALk0GNkg5UQJM6+1U+bR9wipRyypZUY7K6sQMlNJPREXudyYIuUM6d8blPPO2skuSqtph6mmIkIvJp4DXl+hfW+NkKoOo57c7EQZpTCffgSUAlRfoZ6wZGwIx3n8gZuMxlE1lxpOeu0D/ZQs0zxHTYqpxddUUzoKBnBuoYNFf3O8O/aRocWG6nLBof4G14lUx3v0E/k6IRWVct4W1kA3JLovcOTuBnNVh3acxyeNL1dlkeZRjL6OXKrsOS+oZOPojsoYrqoRpB/krtRU91Wh96QpTdW6qwMxxbAKT3UTFyFXRX9fbs1uat2364Wsm79fqitWfe0pekhWU3bXNHPWNiH3MZwD9a+5zTS01fiWqu0Dl/2y5aLdVYachHRwEClb3KwC/CFrFXlqC7prDNFbggn3vQpAOqblns9uQj7CS1yr4ZeaBfSVh/TU+mJvBjKOSkisdFg2ylZ8dVp9lc7oyJl3SUWF1BIroK9yoo+Q307SXTxKBj6s7K+X7K0Myde5nm3opJHK2OufH/WucV7CmO0kU/TRjKzP9fxFfxVaf/3SqO0kUw3kBX6vX2ujwh+B2vOBKrtRe4KzwckzdrXDfA3+WuD+gABhZICXvtO+GeL6zxF9Igjj91pmwxpWHU2PJixKCVZlDxEmJCCUoxma4GjtmqEYE3Y7gpX1g1XnU+rfzz5SNfhcpKaeR2fSZk74Pp3wzQGpWy2zm9sPk9yIm5by9JGry0bC7Q/+RXIWiVn83dknrPq+f8wy9P3qK9K3BGjvDt9SEibMdB/ZwrncfbBKrmv4/FWgUcLb3Sn3Eei2IOQmnVvdC7gV6MYnhPBOdztuBbvnEbrv6Ub3c24Fu3kNIrzPHatbAe9bhQhvdE/uVrAbEDHCO3YiemUuRniX+6q3gt5dDRLeT2PAt8mihHe4N34r+B3yKGGW29cyCnLjGkl4r8WGuJkbJsyY5JxBoJsPWcIcN1nmEuz2SprwPj4GeAMpTXgfjQHeIssT3kVj4JqCJbyLj4He5hxBmOV27mSBb+SOIcx5tila4FvVYwgzRaXSAIHoUzzhLTQGuc9MEl6vMWCfIpbw6qgUFn1KIbxaY3CaIorwWh+D8CmiCS+OSnGaIo7wyk6M6MIIQvLgeFZBo0+JhNctNvwyE0nI5n5mAyStmXjCixDLiEkYS3gJYiRgJOGSQHjuihqf2hlJOC83p9rgCUmP0YRLFtppgKXn1MJxhP+6ISXTBxdTjpGpgKmEC2NrDoac39+m8CUSLsd++mo5LHKQlGPVPxKTxxMJF8hm6KtjpB+acGLc8YR3lx/h98uP8PvlR/j98iP8fvkRfr/8CL9ffoTfL/8B51OSrjlOZyoAAAAASUVORK5CYII=;fontSize=5;fontStyle=1" vertex="1" parent="NGsIiaSq1cdiMAnRfdac-41">
          <mxGeometry x="32.5" y="10" width="15" height="15" as="geometry" />
        </mxCell>
        <mxCell id="NGsIiaSq1cdiMAnRfdac-56" value="Provides metrics and data about the state of application, the database ( PostgreSQL ), and, in the future, Kafka to &quot;Collector&quot;" style="text;html=1;align=left;verticalAlign=middle;whiteSpace=wrap;rounded=0;fontSize=3;" vertex="1" parent="NGsIiaSq1cdiMAnRfdac-41">
          <mxGeometry x="15.451818181818226" y="39.99818181818182" width="49.09090909090909" height="24.545454545454543" as="geometry" />
        </mxCell>
        <mxCell id="NGsIiaSq1cdiMAnRfdac-45" value="" style="endArrow=classic;html=1;rounded=0;exitX=1;exitY=0.5;exitDx=0;exitDy=0;" edge="1" parent="1" source="NGsIiaSq1cdiMAnRfdac-33">
          <mxGeometry width="50" height="50" relative="1" as="geometry">
            <mxPoint x="430" y="200" as="sourcePoint" />
            <mxPoint x="520" y="120" as="targetPoint" />
          </mxGeometry>
        </mxCell>
        <mxCell id="NGsIiaSq1cdiMAnRfdac-77" value="&lt;font style=&quot;font-size: 5px;&quot;&gt;application, database, kafka and VM metrics&lt;/font&gt;" style="edgeLabel;html=1;align=center;verticalAlign=middle;resizable=0;points=[];" vertex="1" connectable="0" parent="NGsIiaSq1cdiMAnRfdac-45">
          <mxGeometry x="0.0056" y="-1" relative="1" as="geometry">
            <mxPoint x="-5" y="-9" as="offset" />
          </mxGeometry>
        </mxCell>
        <mxCell id="NGsIiaSq1cdiMAnRfdac-54" value="" style="group" vertex="1" connectable="0" parent="1">
          <mxGeometry x="910" y="165" width="80" height="80" as="geometry" />
        </mxCell>
        <mxCell id="NGsIiaSq1cdiMAnRfdac-53" value="" style="whiteSpace=wrap;html=1;aspect=fixed;" vertex="1" parent="NGsIiaSq1cdiMAnRfdac-54">
          <mxGeometry width="80" height="80" as="geometry" />
        </mxCell>
        <mxCell id="NGsIiaSq1cdiMAnRfdac-52" value="Grafana Alloy" style="shape=image;verticalLabelPosition=bottom;labelBackgroundColor=default;verticalAlign=top;aspect=fixed;imageAspect=0;image=https://grafana.com/media/docs/alloy/alloy_icon.png;fontSize=6;" vertex="1" parent="NGsIiaSq1cdiMAnRfdac-54">
          <mxGeometry x="25.16999999999996" y="5" width="29.65" height="30" as="geometry" />
        </mxCell>
        <mxCell id="NGsIiaSq1cdiMAnRfdac-91" value="&lt;b&gt;GRAFAN ALLOY RECIEVERS ENDPOINT&lt;/b&gt;:&lt;br style=&quot;font-size: 3px;&quot;&gt;&lt;div style=&quot;font-size: 3px;&quot;&gt;&lt;span style=&quot;background-color: initial;&quot;&gt;&amp;nbsp; &amp;nbsp; &amp;nbsp;http:&lt;/span&gt;&lt;span style=&quot;background-color: initial;&quot; class=&quot;hljs-comment&quot;&gt;//&amp;lt;GRAFANA_ALLOY_SERVER_IP&amp;gt;:4318&lt;/span&gt;&lt;/div&gt;" style="text;html=1;align=left;verticalAlign=middle;whiteSpace=wrap;rounded=0;fontSize=3;" vertex="1" parent="NGsIiaSq1cdiMAnRfdac-54">
          <mxGeometry x="1" y="68" width="69" height="11" as="geometry" />
        </mxCell>
        <mxCell id="NGsIiaSq1cdiMAnRfdac-70" value="" style="group" vertex="1" connectable="0" parent="1">
          <mxGeometry x="330" y="180" width="90" height="40" as="geometry" />
        </mxCell>
        <mxCell id="NGsIiaSq1cdiMAnRfdac-68" value="" style="rounded=0;whiteSpace=wrap;html=1;" vertex="1" parent="NGsIiaSq1cdiMAnRfdac-70">
          <mxGeometry width="90" height="40" as="geometry" />
        </mxCell>
        <mxCell id="NGsIiaSq1cdiMAnRfdac-66" value="" style="shape=image;verticalLabelPosition=bottom;labelBackgroundColor=default;verticalAlign=top;aspect=fixed;imageAspect=0;image=data:image/png,iVBORw0KGgoAAAANSUhEUgAAAOEAAADhCAMAAAAJbSJIAAAAw1BMVEX///9LX6v2qBz+/v///vz2qBtMX6zJz+b6rhn5+fzp6/R8isTx8viQnM2Jlsr+/PhHXbFMYbP+9ej8vU786tD++O9SZrT8u0f7tzj98uH9zXz8sh/9sRP7xmb+sADk5/F1hcJqerz9wlhgc7pWarfR1+r80IX858P97df5pgD8yXGxutva3ux2hsL9wl7947pCWKn94LD915uXos6+w97/uDGqs9b80434x4A6U6ufqND858L2tkX4rS373KL2oQD6vmOUa3PgAAAL5klEQVR4nO2deVuiTgDHMY7GIxG8BS0rD9TNo7S2X7X7/l/VDzRlLmBQGhie/f7R7tOxy6c5PswFkpTZKMgfeYxuNtbrhqmnfR0/lu6m47jZvnZzWYyKNL13gHp1pQKnPs0l4vTevvqO3W7kELFxD65OAfW8ISooYP4QvTaIALqI7Ty1RUXq1jFAF7GTnx7VLcE2AegiWnlBDADMD2IgYF4Q3TYYBKi6bTEP3c2U7GTgHlV8aTRwTWCIgnuREH3eECmip1VUkdsiRfQURIHVP23b0YACS0Mxn5gAhUVUpLXDBigqoqIHmZ6IqOo3HZW1DIVUv6tC5kq6RxTOiy7hnziEAiJKzTi19EpA9StKnVEWJ0TB1K9Ik5iFKJw0FH1s5RxRavZyj2jGRBRQ/XERBVS/i3gVUxqiebE5i+kM8RD1/iAuoljqdy+1HhtRLPW7l9qPXVHFkoYi6bOce1H5p34y/9Sfgcj4J3KofllGKfOmfvn04ZTcqN/FWjzfPQyr1yhibtQvS5Wb3zVD02q14QL5Sm7UX7mrFQ4xHq5ltBRzoX4fsFDQhtdIU8yF+ktlH/CAiHY3wqv/tmoUChgi+h2Cq/+22ioUcESJKEVx1e8CagUc8QFHFFj9JQqgi/g4yov6K2WD5POCIQqrflgTOOI18p2Cqr/yKxDQa4viqz+kBAu5UD8qejqi0OrHRR9dioKpnxQ9FVFc9dNET0EUV/100VMQE1I/9wSKnkwC6rfrXe6AoZrAES9Xv/Oq862nYaKnVNTL1Q+2Jl/AOCVYSET9zoQnYJTo6YiXqd9ZcwSMFn10KcZG5EnIInoq4iXqV50GT0AmDxKIF6kfdLj1NKyipyBeon5nw8sWMURP5nz12/e8jB9XEzjimeoH97zu2uKJnsyZ6ucIeFkJFs5UP7jnNbSIL3o6Ykz1e4B8co7oo0sxEhHUeVXR80RPRYyjftDmNRN1rugpiHHUz2/au5RIFf1GZFc/N0C5+J4cYIFd/RwXLhZJVdEjIpP6QZ1XG5SLu1WigGzq90TPqQTlSoKt8BsxWv38RO8RXnK/HYwYqn5+opd+pAwjEW1uot+nuLv8fo2GSKr/iGhzE/13RlqyfekB8WGBq3/s2IdHSj3xXnCq3PxAIRaMIbHNb1J3/jhOe813dtTLYph8SywUang9VSSl2fCe7JbCQsyPINaq+J5bRfE/8o0sLe6Sb4rakPJfpYF3yOgueSk+yOTG6RSTfEU17tJmwpI4Yu05bSQ8SSP+XkT/n5yTLGLtJm0eSpJErN1V0sahJTlEDzBLHekpSSEa5YwCSsmoX2tVS2mDBCdM/ZoX949owNu0MY6R90E/R6+ommasVlqh1Wpp2sowQsdb2QGUib/sQyBqhrF6uKs+7+Yvbua795vysLAygiCNzAC6qYxeXkaVcEStpg3fX0aLUuX4XcXK7eJ6V35cUetzrZyVNihLxZfy8OFxWJ7j/R6E6Jbe++i2cvyRwwfvz2JpMf9lkAWZJQ9Wnh/3XYfWusF/60dErTZ8KRUpZyv3kSujKl6OtV/ZASz6U2wG0bkfEGuPL8WIf+X2128toyVYhFdEV0TbWQw1o7CTgorvGPero6FfVT3RZyVFdMmX7B5Gd+XbKD7J841U3D0cEDMl+koVm14jEW8ZR+heMZZbhWyJXirdEB29hwgTsd9VusV4++zeAmQLkLKmvXIvEMGKwShVdlqWRO8C0u5HDBwRj/Id2teKu8yIPhDQbUhhiDAYSen2N6XMDJcqQYAHRGoORGZjslz+1zD9z2QyxbC1NFL9XjyY5nr28QksL58f/S9TyuybZYrhW59I9e+zrDsD+/i0PdWxB3/a64y+WCYC0JMGcVeiL9v7ZTEk9qCzbmawFAnRU+opRqhPZzb9HQGDp0nmECmix+KtayLR152gLU2qs/1qpgMSFKroUUBtDg8mFKn5aoU9Qd9+S/2cK5xAD0J1tAzrQpH0HgjdPKk6f83sIDIAaq05Oi81I3oYPBlCDBG9T4gVYY9hn7YzywhgqOiPae2gn1CkNdNee3uTGhScSA/ui3AIbRBRpK5KVFFVpXxuu8xAPWUCLGjokia2oVBVwbbT/uhsAdb7eE0x7USLfp/HF7gI11tk9zLYPr2uG91uY7n5u0UMooKvtMswWvSHDOEBUHMGEIonf59Pc9lHnggNnrifckUTLfpDjCr8U8uOCgP2vK12pwFwd+MgX12mWogMHjwE6Un1N7gIwRi7PVO+YEQwM9N89gMrILo/G3mZjN3Hh0qK/gq9QwBsUzhvfgyL6A/RHuFRxXLrlxGwybGgYsK/AmeZ2pifSfTfhPBeQmUDFdHgiya8BlRP7R7n4+ansHnwkFoZ+kGz5xOCLW2OSTH7fiGCekqj4TiA3hYmH6T75F++PaZWQWUN/xLSkT6j6I+E7xBhA3qfjBNwV9bwm6oKUjEiq+iPhHOYsAP8qw/oKKHfAs/D2H5YRR9NGFADIaGozoT/3Te7BxMh5P+MmdiAwYROJmspu+h9wh18S1Nn6GmsFHuaGKL3CQNt0QuyxYmQuy1iefBECA8tmpDxVUCdwDehXwK452v8swCxbdnIXduGVk3htwbZY653bfFEf4r2UISqKXrn3SQQFeRFjzzvvOW4ovfTgif0p1AdvAJ9bFJUcceP8Oipw3P0FFf0ECE0TSMpr8gIuGdC64XuX9zhITQCdnrcmqEsVZ7PPlhvIFvPkVkMdxTvCc+fxXjDZjE48XmI8/NPLWt38KqMjs1E1Tcn5Zlf9+hMVJ+jDRcXHO5BHhageH0NjKFaH72vSbfbWPfq6HqUavF7ypMsXV9yWLL1jgx18SPmKrCsz0/LwpejuM4IX3bwXPtVggvR/CQXnshJ/Su1w3FcceHReu0R6U2lZeTa2r6OfvHC2yPOL3p4wApZxFekVwZE543n3YwsjR4vaIda6xnbDz2OXiHtkfc7P5pS9YJCxHdDu3cuocv43rhwxn0J+Prh7EI0iO3erhU327CdCoNX/nNsxfm59bSG76Q5IC4/gmqq6mxT2Rjl3tWcB1imb1pXur0BdTkfDPqpPABYlqX5OYOnIECPYVIndn2p9qCd2pLaWYhGNfjYgQvSmH1aNlC/49jWZ5/rM1WxuIgxK6rWugk7ReANJ5rL8d+PdsdN++PveJ3u7kuvosbqbiiHZrAcRvDN6eS/yWSahR20sjyPIY1oQC/oLuifu3a2yK402BGZAPcJ3sjOPXEQaaIXIDKz+umiFyAyo/oDPZj9sKlfYECJSf1hos9gFLwXj1J/hOgzF93smuitfoT62TyYmeiNzey+v5mgu7PC1C8YoLnpOAAAZ/uKTCqEeVEswOb4ez0WWD1GRLFEfwL0Bm4zHUektUWxRK8jz5W0+xKKSFO/YB7EDg3YdRSR4kXBALEHEatXAxSRVL9Yotd7+KkIdb/jFUOEFt0EE32Tcq7FRZwhXkTUn20PEjdmbi9Kncu0e6T6Vx6jZrSeMwx4CMRojgOeWq9ar9je8+J19XG1Wml3xLNaspTpcr2GN5A1gwC9XUrEdF9p9LLbXS+yiyc1N/WttW2/nXZ2hADS390iF70+NLOI3iOxvZyehK2HvlgB9IkzELKUrcdtolH0r6MVjq8tCT8dCLi9niapmP5KnvdmS0L0BGGq51jOyQTeZVWfkqIn22Halxwz0N5/V3dPUW/EUjtp7C2/KEuY8Mpxwt9qplrCFaE0DT83jgOO0z/XGTfNmRNNdoyFn6YTIQp8jCUi+F2pKJl0GBEHPeHa4HcYEQf9tC/0/ExYKqrdS/syL0k0omoJW0UPiUJUhexFkYS3xRwAhiMKKXoyIRU1DyXoJRBRVNGTCaio4oqeDAVRFVr0ZCgVVWzRkyEQnVl+qughOCJ4SvHhGz8TvC3a9VR27P5kcETvpZc5C1FR68JNPkWFQOT34kteISrqW9pXlHgwRLWdu94Gq6jqdp07QhSR52lOfoERs/EIw8QDtUX1PndK3OeEqFrZeNBm8pm094fHwSA3I2AijRlwHMfK2pOZE4zSnC7XEzNv4ycyQnej/wMVAS4gRzZW8wAAAABJRU5ErkJggg==;" vertex="1" parent="NGsIiaSq1cdiMAnRfdac-70">
          <mxGeometry x="56.25" y="5.333333333333333" width="26.666666666666664" height="26.666666666666664" as="geometry" />
        </mxCell>
        <mxCell id="NGsIiaSq1cdiMAnRfdac-69" value="OpenTelemetry&lt;br style=&quot;font-size: 7px;&quot;&gt;Java agent" style="text;html=1;align=center;verticalAlign=middle;whiteSpace=wrap;rounded=0;fontSize=7;" vertex="1" parent="NGsIiaSq1cdiMAnRfdac-70">
          <mxGeometry x="3.75" y="10.333333333333332" width="52.5" height="16.666666666666664" as="geometry" />
        </mxCell>
        <mxCell id="NGsIiaSq1cdiMAnRfdac-75" style="edgeStyle=orthogonalEdgeStyle;rounded=0;orthogonalLoop=1;jettySize=auto;html=1;entryX=0;entryY=0.75;entryDx=0;entryDy=0;" edge="1" parent="1" source="NGsIiaSq1cdiMAnRfdac-68" target="NGsIiaSq1cdiMAnRfdac-58">
          <mxGeometry relative="1" as="geometry" />
        </mxCell>
        <mxCell id="NGsIiaSq1cdiMAnRfdac-76" value="metircs, traces, logs" style="edgeLabel;html=1;align=center;verticalAlign=middle;resizable=0;points=[];fontSize=6;" vertex="1" connectable="0" parent="NGsIiaSq1cdiMAnRfdac-75">
          <mxGeometry x="-0.0117" relative="1" as="geometry">
            <mxPoint x="3" y="1" as="offset" />
          </mxGeometry>
        </mxCell>
        <mxCell id="NGsIiaSq1cdiMAnRfdac-83" value="" style="group" vertex="1" connectable="0" parent="1">
          <mxGeometry x="330" y="230" width="80" height="80" as="geometry" />
        </mxCell>
        <mxCell id="NGsIiaSq1cdiMAnRfdac-79" value="" style="whiteSpace=wrap;html=1;aspect=fixed;" vertex="1" parent="NGsIiaSq1cdiMAnRfdac-83">
          <mxGeometry width="80" height="80" as="geometry" />
        </mxCell>
        <mxCell id="NGsIiaSq1cdiMAnRfdac-78" value="" style="shape=image;verticalLabelPosition=bottom;labelBackgroundColor=default;verticalAlign=top;aspect=fixed;imageAspect=0;image=https://cdn4.iconfinder.com/data/icons/logos-and-brands/512/97_Docker_logo_logos-512.png;fontSize=6;" vertex="1" parent="NGsIiaSq1cdiMAnRfdac-83">
          <mxGeometry x="18" width="44" height="44" as="geometry" />
        </mxCell>
        <mxCell id="NGsIiaSq1cdiMAnRfdac-85" value="Docker" style="text;html=1;align=center;verticalAlign=middle;whiteSpace=wrap;rounded=0;fontSize=9;" vertex="1" parent="NGsIiaSq1cdiMAnRfdac-83">
          <mxGeometry x="10" y="40" width="60" height="30" as="geometry" />
        </mxCell>
        <mxCell id="NGsIiaSq1cdiMAnRfdac-84" style="edgeStyle=orthogonalEdgeStyle;rounded=0;orthogonalLoop=1;jettySize=auto;html=1;entryX=0;entryY=0.5;entryDx=0;entryDy=0;" edge="1" parent="1" source="NGsIiaSq1cdiMAnRfdac-79" target="NGsIiaSq1cdiMAnRfdac-19">
          <mxGeometry relative="1" as="geometry" />
        </mxCell>
        <mxCell id="NGsIiaSq1cdiMAnRfdac-86" value="application logs" style="edgeLabel;html=1;align=center;verticalAlign=middle;resizable=0;points=[];fontSize=5;" vertex="1" connectable="0" parent="NGsIiaSq1cdiMAnRfdac-84">
          <mxGeometry x="-0.1831" y="1" relative="1" as="geometry">
            <mxPoint x="5" y="-6" as="offset" />
          </mxGeometry>
        </mxCell>
        <mxCell id="NGsIiaSq1cdiMAnRfdac-87" style="edgeStyle=orthogonalEdgeStyle;rounded=0;orthogonalLoop=1;jettySize=auto;html=1;entryX=0;entryY=0.5;entryDx=0;entryDy=0;" edge="1" parent="1" source="NGsIiaSq1cdiMAnRfdac-19" target="NGsIiaSq1cdiMAnRfdac-53">
          <mxGeometry relative="1" as="geometry" />
        </mxCell>
        <mxCell id="NGsIiaSq1cdiMAnRfdac-88" style="edgeStyle=orthogonalEdgeStyle;rounded=0;orthogonalLoop=1;jettySize=auto;html=1;entryX=0;entryY=0.5;entryDx=0;entryDy=0;" edge="1" parent="1" source="NGsIiaSq1cdiMAnRfdac-12" target="NGsIiaSq1cdiMAnRfdac-53">
          <mxGeometry relative="1" as="geometry" />
        </mxCell>
        <mxCell id="NGsIiaSq1cdiMAnRfdac-90" value="&lt;b&gt;Adding lables&lt;/b&gt;:&lt;br style=&quot;font-size: 3px;&quot;&gt;&lt;div style=&quot;font-size: 3px;&quot;&gt;&lt;span style=&quot;white-space: pre;&quot;&gt;&#x9;&lt;/span&gt;server_id:&amp;nbsp; &amp;lt;some-id&amp;gt;&lt;br&gt;&lt;span style=&quot;white-space: pre;&quot;&gt;&#x9;&lt;/span&gt;server_name: &amp;lt;some_name&amp;gt;&lt;br&gt;&lt;/div&gt;" style="text;html=1;align=left;verticalAlign=middle;whiteSpace=wrap;rounded=0;fontSize=3;" vertex="1" parent="1">
          <mxGeometry x="522" y="295" width="49" height="13.5" as="geometry" />
        </mxCell>
        <mxCell id="NGsIiaSq1cdiMAnRfdac-100" value="" style="group" vertex="1" connectable="0" parent="1">
          <mxGeometry x="1030" y="170" width="80" height="80" as="geometry" />
        </mxCell>
        <mxCell id="NGsIiaSq1cdiMAnRfdac-93" value="" style="whiteSpace=wrap;html=1;aspect=fixed;" vertex="1" parent="NGsIiaSq1cdiMAnRfdac-100">
          <mxGeometry width="80" height="80" as="geometry" />
        </mxCell>
        <mxCell id="NGsIiaSq1cdiMAnRfdac-92" value="" style="shape=image;verticalLabelPosition=bottom;labelBackgroundColor=default;verticalAlign=top;aspect=fixed;imageAspect=0;image=https://upload.wikimedia.org/wikipedia/commons/thumb/3/38/Prometheus_software_logo.svg/2066px-Prometheus_software_logo.svg.png;" vertex="1" parent="NGsIiaSq1cdiMAnRfdac-100">
          <mxGeometry x="24.86999999999989" y="10" width="30.26" height="30" as="geometry" />
        </mxCell>
        <mxCell id="NGsIiaSq1cdiMAnRfdac-94" value="&lt;b&gt;Prometheus&lt;/b&gt;" style="text;html=1;align=center;verticalAlign=middle;whiteSpace=wrap;rounded=0;fontSize=7;" vertex="1" parent="NGsIiaSq1cdiMAnRfdac-100">
          <mxGeometry x="10" y="30" width="60" height="30" as="geometry" />
        </mxCell>
        <mxCell id="NGsIiaSq1cdiMAnRfdac-99" value="&lt;b&gt;PROMETHEUS ENDPOINT&lt;/b&gt;:&lt;br style=&quot;font-size: 3px;&quot;&gt;&lt;div style=&quot;font-size: 3px;&quot;&gt;&lt;span style=&quot;white-space: pre; font-size: 3px;&quot;&gt;&#x9;&lt;/span&gt;http:localhost:8889&lt;/div&gt;" style="text;html=1;align=left;verticalAlign=middle;whiteSpace=wrap;rounded=0;fontSize=3;" vertex="1" parent="NGsIiaSq1cdiMAnRfdac-100">
          <mxGeometry x="1" y="69" width="49" height="11" as="geometry" />
        </mxCell>
      </root>
    </mxGraphModel>
  </diagram>
</mxfile>
